<svg width="31" height="31" viewBox="0 0 31 31" fill="none" xmlns="http://www.w3.org/2000/svg">
<path d="M27.3097 19.9085C27.814 18.5495 28.09 17.0795 28.09 15.545C28.09 14.0105 27.814 12.5405 27.3097 11.1816L15.545 10.0907L3.78029 11.1816C3.27604 12.5405 3 14.0105 3 15.545C3 17.0795 3.27604 18.5495 3.78029 19.9085L15.545 20.9993L27.3097 19.9085Z" fill="#6DA544"/>
<path d="M27.3097 11.1815C25.5372 6.4044 20.9389 3 15.545 3C10.1511 3 5.55279 6.4044 3.78027 11.1815H27.3097Z" fill="#FFDA44"/>
<path d="M15.545 28.09C20.9389 28.09 25.5372 24.6856 27.3097 19.9084H3.78027C5.55279 24.6856 10.1511 28.09 15.545 28.09Z" fill="#D80027"/>
<path d="M24.1476 13.6136H17.5758L15.545 7.36345L13.5142 13.6136H6.94242L12.2591 17.4763L10.2283 23.7265L15.545 19.9085L20.8617 23.7265L18.831 17.4763L24.1476 13.6136Z" fill="#F0F0F0"/>
<circle cx="15.5" cy="15.5" r="15" stroke="url(#paint0_linear_2438_3317)"/>
<defs>
<linearGradient id="paint0_linear_2438_3317" x1="15.5" y1="0" x2="15.5" y2="31" gradientUnits="userSpaceOnUse">
<stop stop-color="#CCAB67"/>
<stop offset="1" stop-color="#FFEEB0"/>
</linearGradient>
</defs>
</svg>
