<svg width="31" height="31" viewBox="0 0 31 31" fill="none" xmlns="http://www.w3.org/2000/svg">
<mask id="mask0_5000_3366" style="mask-type:alpha" maskUnits="userSpaceOnUse" x="3" y="3" width="26" height="26">
<path fill-rule="evenodd" clip-rule="evenodd" d="M27.3097 11.1815C25.5372 6.4044 20.9389 3 15.545 3C10.1511 3 5.55279 6.4044 3.78027 11.1815H3.78058L3.78029 11.1816C3.27604 12.5406 3 14.0105 3 15.545C3 17.0795 3.27604 18.5495 3.78029 19.9085C5.55279 24.6856 10.1511 28.09 15.545 28.09C20.9389 28.09 25.5372 24.6856 27.3097 19.9085L27.3097 19.9085C27.814 18.5495 28.09 17.0795 28.09 15.545C28.09 14.0105 27.814 12.5406 27.3097 11.1816L27.3097 11.1815Z" fill="#D80027"/>
</mask>
<g mask="url(#mask0_5000_3366)">
<path d="M15.5 28C22.4036 28 28 22.4036 28 15.5C28 8.59644 22.4036 3 15.5 3C8.59644 3 3 8.59644 3 15.5C3 22.4036 8.59644 28 15.5 28Z" fill="#F2F2F2"/>
<path d="M6.33514 11.0594L8.95233 8.30782L9.53749 8.91563L6.9203 11.668L6.33514 11.0594Z" fill="#28292B"/>
<path d="M7.17657 11.9539L9.79298 9.20157L10.3789 9.80938L7.76251 12.5617L7.17657 11.9539Z" fill="#28292B"/>
<path d="M7.99298 12.8102L10.6094 10.0586L11.1953 10.6656L8.57814 13.418L7.99298 12.8102Z" fill="#28292B"/>
<path d="M21.3062 18.7609L22.3336 17.6789L22.9195 18.2875L21.8906 19.3719L21.3062 18.7609Z" fill="#28292B"/>
<path d="M20.3024 21.0391L19.7156 20.4313L20.7227 19.3719L21.3063 19.9813L20.3024 21.0391Z" fill="#28292B"/>
<path d="M22.157 19.6461L23.175 18.5742L23.7602 19.182L22.7399 20.2562L22.157 19.6461Z" fill="#28292B"/>
<path d="M21.1453 21.9328L20.5594 21.3242L21.5727 20.2563L22.157 20.8664L21.1453 21.9328Z" fill="#28292B"/>
<path d="M23.5601 21.1078L22.9758 20.4977L23.9906 19.4305L24.575 20.0383L23.5601 21.1078Z" fill="#28292B"/>
<path d="M21.9617 22.7906L21.3765 22.182L22.3937 21.1109L22.9781 21.7203L21.9617 22.7906Z" fill="#28292B"/>
<path d="M23.6297 9.87109L24.6648 10.9453L24.0828 11.5578L23.0461 10.4813L23.6297 9.87109Z" fill="#28292B"/>
<path d="M21.45 8.8211L22.0328 8.20938L23.0461 9.26094L22.4625 9.8711L21.45 8.8211Z" fill="#28292B"/>
<path d="M20.5961 9.70234L21.1781 9.08984L23.8086 11.8234L23.2273 12.4359L20.5961 9.70234Z" fill="#28292B"/>
<path d="M21.3836 12.2266L21.968 11.6164L22.9899 12.6758L22.4078 13.2883L21.3836 12.2266Z" fill="#28292B"/>
<path d="M19.775 10.5563L20.3562 9.94376L21.382 11.0078L20.7976 11.618L19.775 10.5563Z" fill="#28292B"/>
<path d="M8.02655 18.2484L8.60858 17.6367L11.2422 20.3727L10.6601 20.9844L8.02655 18.2484Z" fill="#28292B"/>
<path d="M9.36013 20.1867L10.3859 21.2516L9.80388 21.8633L8.77576 20.7977L9.36013 20.1867Z" fill="#28292B"/>
<path d="M7.17267 19.1297L7.7547 18.5172L8.77579 19.5774L8.1922 20.1867L7.17267 19.1297Z" fill="#28292B"/>
<path d="M6.35156 19.9836L6.93281 19.3719L9.56641 22.1039L8.98437 22.7156L6.35156 19.9836Z" fill="#28292B"/>
<path d="M19.9609 15.5C19.9871 16.7065 19.5332 17.874 18.6989 18.746C17.8646 19.6179 16.7182 20.1229 15.5117 20.15C14.3054 20.1227 13.1592 19.6176 12.3251 18.7457C11.4909 17.8738 11.0371 16.7064 11.0633 15.5C11.0369 14.2935 11.4906 13.1259 12.3248 12.2538C13.1589 11.3817 14.3052 10.8765 15.5117 10.8492C16.7183 10.8765 17.8647 11.3816 18.6989 12.2537C19.5332 13.1258 19.9871 14.2934 19.9609 15.5Z" fill="#2E4593"/>
<path d="M19.9375 15.5C19.9385 15.7175 19.9236 15.9347 19.893 16.15C19.764 15.2289 19.2828 13.5672 17.4601 13.5352C17.0113 13.4784 16.5568 13.5829 16.1778 13.83C15.7987 14.0771 15.5198 14.4507 15.3906 14.8844C14.9836 15.9398 14.9398 17.2281 13.1508 17.2281C12.6564 17.2624 12.1668 17.1118 11.7771 16.8057C11.3874 16.4995 11.1252 16.0596 11.0414 15.5711C11.0398 15.5482 11.0398 15.5252 11.0414 15.5023C11.0393 14.7422 11.2179 13.9924 11.5625 13.3148C11.9252 12.5803 12.4845 11.9607 13.1782 11.525C13.872 11.0893 14.673 10.8546 15.4922 10.8469C16.6984 10.8754 17.844 11.3814 18.6775 12.2538C19.5109 13.1262 19.9641 14.2937 19.9375 15.5Z" fill="#DB2E2E"/>
</g>
<circle cx="15.5" cy="15.5" r="15" stroke="url(#paint0_linear_5000_3366)"/>
<defs>
<linearGradient id="paint0_linear_5000_3366" x1="15.5" y1="0" x2="15.5" y2="31" gradientUnits="userSpaceOnUse">
<stop stop-color="#CCAB67"/>
<stop offset="1" stop-color="#FFEEB0"/>
</linearGradient>
</defs>
</svg>
