<svg width="31" height="31" viewBox="0 0 31 31" fill="none" xmlns="http://www.w3.org/2000/svg">
<g clip-path="url(#clip0_5703_2128)">
<path d="M15.5 30.5C23.7843 30.5 30.5 23.7843 30.5 15.5C30.5 7.21573 23.7843 0.5 15.5 0.5C7.21573 0.5 0.5 7.21573 0.5 15.5C0.5 23.7843 7.21573 30.5 15.5 30.5Z" stroke="url(#paint0_linear_5703_2128)"/>
<path d="M27.2225 11.1522C25.4563 6.39224 20.8745 3 15.5 3C10.1254 3 5.54363 6.39224 3.77747 11.1522H27.2225Z" fill="#D80027"/>
<path d="M3.77747 19.8478C5.54363 24.6078 10.1254 28 15.5 28C20.8745 28 25.4563 24.6078 27.2225 19.8478H3.77747Z" fill="#D80027"/>
<path d="M3 15.5C3 17.029 3.27505 18.4937 3.77749 19.8478L15.5 20.9348L27.2225 19.8478C27.725 18.4937 28 17.029 28 15.5C28 13.971 27.725 12.5064 27.2225 11.1522L15.5 10.0652L3.77749 11.1522C3.27505 12.5064 3 13.971 3 15.5Z" fill="#FFDA44"/>
</g>
<defs>
<linearGradient id="paint0_linear_5703_2128" x1="15.5" y1="0" x2="15.5" y2="31" gradientUnits="userSpaceOnUse">
<stop stop-color="#CCAB67"/>
<stop offset="1" stop-color="#FFEEB0"/>
</linearGradient>
<clipPath id="clip0_5703_2128">
<rect width="31" height="31" fill="white"/>
</clipPath>
</defs>
</svg>
