<svg width="31" height="31" viewBox="0 0 31 31" fill="none" xmlns="http://www.w3.org/2000/svg">
<g clip-path="url(#clip0_5703_2101)">
<mask id="mask0_5703_2101" style="mask-type:alpha" maskUnits="userSpaceOnUse" x="3" y="3" width="26" height="26">
<path fill-rule="evenodd" clip-rule="evenodd" d="M27.3097 11.1815C25.5372 6.4044 20.9389 3 15.545 3C10.1511 3 5.55279 6.4044 3.78027 11.1815C3.27602 12.5405 3 14.0105 3 15.545C3 17.0795 3.27604 18.5495 3.78029 19.9085C5.55279 24.6856 10.1511 28.09 15.545 28.09C20.9389 28.09 25.5372 24.6856 27.3097 19.9085C27.814 18.5495 28.09 17.0795 28.09 15.545C28.09 14.0105 27.814 12.5405 27.3097 11.1815Z" fill="#D80027"/>
</mask>
<g mask="url(#mask0_5703_2101)">
<path d="M26.7597 10.0652C24.7378 5.88403 20.4558 3 15.5 3C10.5443 3 6.26223 5.88403 4.24036 10.0652L15.5 11.1522L26.7597 10.0652Z" fill="#D80027"/>
<path d="M4.24036 20.9348C6.26223 25.116 10.5443 28 15.5 28C20.4558 28 24.7378 25.116 26.7597 20.9348L15.5 19.8478L4.24036 20.9348Z" fill="#D80027"/>
<path d="M26.7597 10.0652H4.24033C3.4457 11.7086 3 13.5522 3 15.5C3 17.4478 3.4457 19.2915 4.24033 20.9348H26.7596C27.5543 19.2915 28 17.4478 28 15.5C28 13.5522 27.5543 11.7086 26.7597 10.0652Z" fill="#0052B4"/>
<path d="M15.5 19.8478C17.9012 19.8478 19.8478 17.9012 19.8478 15.5C19.8478 13.0987 17.9012 11.1522 15.5 11.1522C13.0988 11.1522 11.1522 13.0987 11.1522 15.5C11.1522 17.9012 13.0988 19.8478 15.5 19.8478Z" fill="#F0F0F0"/>
</g>
<path d="M15.5 30.5C23.7843 30.5 30.5 23.7843 30.5 15.5C30.5 7.21573 23.7843 0.5 15.5 0.5C7.21573 0.5 0.5 7.21573 0.5 15.5C0.5 23.7843 7.21573 30.5 15.5 30.5Z" stroke="url(#paint0_linear_5703_2101)"/>
</g>
<defs>
<linearGradient id="paint0_linear_5703_2101" x1="15.5" y1="0" x2="15.5" y2="31" gradientUnits="userSpaceOnUse">
<stop stop-color="#CCAB67"/>
<stop offset="1" stop-color="#FFEEB0"/>
</linearGradient>
<clipPath id="clip0_5703_2101">
<rect width="31" height="31" fill="white"/>
</clipPath>
</defs>
</svg>
