<svg width="31" height="31" viewBox="0 0 31 31" fill="none" xmlns="http://www.w3.org/2000/svg">
<g clip-path="url(#clip0_5703_2117)">
<path d="M15.5 30.5C23.7843 30.5 30.5 23.7843 30.5 15.5C30.5 7.21573 23.7843 0.5 15.5 0.5C7.21573 0.5 0.5 7.21573 0.5 15.5C0.5 23.7843 7.21573 30.5 15.5 30.5Z" stroke="url(#paint0_linear_5703_2117)"/>
<path d="M15.5 28C22.4036 28 28 22.4036 28 15.5C28 8.59644 22.4036 3 15.5 3C8.59644 3 3 8.59644 3 15.5C3 22.4036 8.59644 28 15.5 28Z" fill="#EE1C25"/>
<path d="M22.1758 17.4733L20.9483 17.4533L20.5492 16.2933L20.1508 17.4533L18.9233 17.4742L19.9042 18.2108L19.545 19.3833L20.55 18.6792L21.555 19.3833L21.195 18.2108L22.1758 17.4733Z" fill="#FFFF00"/>
<path d="M17.6741 11.9392L17.6941 10.7117L18.8541 10.3125L17.6941 9.91332L17.6733 8.68582L16.9366 9.66665L15.7633 9.30832L16.4683 10.3133L15.7633 11.3183L16.9366 10.9575L17.6741 11.9392Z" fill="#FFFF00"/>
<path d="M17.6741 22.3142L17.6941 21.0867L18.8541 20.6875L17.6941 20.2883L17.6733 19.0608L16.9366 20.0417L15.7633 19.6833L16.4683 20.6883L15.7633 21.6933L16.9366 21.3325L17.6741 22.3142Z" fill="#FFFF00"/>
<path d="M21.0441 13.4475L21.5825 12.345L20.48 12.8833L19.5975 12.03L19.77 13.2442L18.6866 13.82L19.8958 14.0325L20.1083 15.2417L20.6825 14.1575L21.8975 14.3292L21.0441 13.4475Z" fill="#FFFF00"/>
<path d="M14.2592 14.0117L10.95 13.9567L9.87418 10.83L8.79918 13.9575L5.49084 14.0133L8.13501 16.0008L7.16668 19.1633L9.87584 17.2642L12.5858 19.1617L11.6158 16L14.2592 14.0117Z" fill="#FFFF00"/>
</g>
<defs>
<linearGradient id="paint0_linear_5703_2117" x1="15.5" y1="0" x2="15.5" y2="31" gradientUnits="userSpaceOnUse">
<stop stop-color="#CCAB67"/>
<stop offset="1" stop-color="#FFEEB0"/>
</linearGradient>
<clipPath id="clip0_5703_2117">
<rect width="31" height="31" fill="white"/>
</clipPath>
</defs>
</svg>
