<svg width="31" height="31" viewBox="0 0 31 31" fill="none" xmlns="http://www.w3.org/2000/svg">
<g clip-path="url(#clip0_5703_2213)">
<path d="M15.5 30.5C23.7843 30.5 30.5 23.7843 30.5 15.5C30.5 7.21573 23.7843 0.5 15.5 0.5C7.21573 0.5 0.5 7.21573 0.5 15.5C0.5 23.7843 7.21573 30.5 15.5 30.5Z" stroke="url(#paint0_linear_5703_2213)"/>
<path d="M15.5 28C22.4028 28 28 22.4028 28 15.5C28 8.59717 22.4028 3 15.5 3C8.59717 3 3 8.59717 3 15.5C3 22.4028 8.59717 28 15.5 28Z" fill="#F0F0F0"/>
<path d="M27.2222 19.8457C28.2593 17.0404 28.2593 13.9567 27.2222 11.1514H3.77784C2.74072 13.9567 2.74072 17.0404 3.77784 19.8457L15.5 20.938L27.2222 19.8457Z" fill="#0052B4"/>
<path d="M15.5 28C20.875 28 25.458 24.6113 27.2222 19.8457H3.77783C5.54395 24.6113 10.125 28 15.5 28Z" fill="#D80027"/>
</g>
<defs>
<linearGradient id="paint0_linear_5703_2213" x1="15.5" y1="0" x2="15.5" y2="31" gradientUnits="userSpaceOnUse">
<stop stop-color="#CCAB67"/>
<stop offset="1" stop-color="#FFEEB0"/>
</linearGradient>
<clipPath id="clip0_5703_2213">
<rect width="31" height="31" fill="white"/>
</clipPath>
</defs>
</svg>
