<svg width="40" height="40" viewBox="0 0 40 40" fill="none" xmlns="http://www.w3.org/2000/svg">
<g id="Group 6654">
<g id="Group 6457">
<g id="Group 6451">
<circle id="Ellipse 595" cx="20" cy="20" r="19.5" stroke="url(#paint0_linear_90_2013)"/>
</g>
</g>
<g id="Layer 2">
<g id="United Kingdom">
<path id="Vector" d="M36.1905 20C36.1905 28.9392 28.9459 36.1864 20.0074 36.1905H19.8327C19.0479 36.1823 18.2647 36.1176 17.4891 35.9969C16.8541 35.8987 16.2255 35.7622 15.607 35.5881C12.2109 34.6297 9.22066 32.5885 7.09114 29.7747C4.96162 26.961 3.80933 23.5287 3.80952 20C3.80952 11.0595 11.0561 3.80953 20 3.80953H20.0074C22.2101 3.80756 24.3898 4.25644 26.4124 5.12854C28.4351 6.00064 30.2578 7.27751 31.7684 8.88052C34.6096 11.8855 36.192 15.8645 36.1905 20Z" fill="white"/>
<path id="Vector_2" d="M15.9133 15.1849V15.9135H13.5596L6.94853 10.4161C7.35718 9.86023 7.80108 9.33116 8.2775 8.83215L15.9133 15.1849Z" fill="#C8102E"/>
<path id="Vector_3" d="M33.0713 10.4456L26.4987 15.9099H24.0856V15.2339L31.7477 8.85962L31.768 8.88053C32.2096 9.34611 32.6228 9.83788 33.0052 10.3532L33.0713 10.4456Z" fill="#C8102E"/>
<path id="Vector_4" d="M15.9133 24.0853V24.8139L8.27747 31.168C8.21001 31.1005 8.14255 31.0277 8.07913 30.9568C7.67746 30.5204 7.30023 30.0621 6.94917 29.584L13.5603 24.0853H15.9133Z" fill="#C8102E"/>
<path id="Vector_5" d="M33.072 29.5537C32.665 30.11 32.2229 30.6397 31.7484 31.1397L24.0856 24.7647V24.0853H26.4987L33.072 29.5537Z" fill="#C8102E"/>
<g id="Group">
<path id="Vector_6" d="M10.2753 15.9134H4.32938C4.66717 14.618 5.16575 13.37 5.8135 12.1984L10.2753 15.9134Z" fill="#012169"/>
<path id="Vector_7" d="M10.1411 24.0853L5.76561 27.7241C5.14033 26.5742 4.65801 25.3522 4.32938 24.0853H10.1411Z" fill="#012169"/>
<path id="Vector_8" d="M15.9136 27.5068V35.6695C15.8111 35.6432 15.7112 35.6156 15.6067 35.5866C13.4852 34.9891 11.5086 33.9633 9.799 32.5724L15.9136 27.5068Z" fill="#012169"/>
<path id="Vector_9" d="M15.9137 4.3294V12.3639L9.89021 7.35297C11.6628 5.93229 13.7154 4.90196 15.9137 4.3294Z" fill="#012169"/>
<path id="Vector_10" d="M30.2015 7.42848L24.0856 12.4981V4.33002L24.178 4.35364C26.3806 4.94122 28.4336 5.98922 30.2015 7.42848Z" fill="#012169"/>
<path id="Vector_11" d="M35.67 15.9132H29.8684L34.2337 12.2811C34.8584 13.4289 35.3407 14.6486 35.67 15.9132Z" fill="#012169"/>
<path id="Vector_12" d="M30.2533 32.5326C28.4493 34.0116 26.3462 35.0821 24.0887 35.6702V27.4042L30.2533 32.5326Z" fill="#012169"/>
<path id="Vector_13" d="M35.6698 24.0853C35.3482 25.3216 34.8806 26.5153 34.2768 27.6411L30.0031 24.0853H35.6698Z" fill="#012169"/>
</g>
<path id="Vector_14" d="M36.1905 19.8307V20.1538C36.1835 20.9087 36.1242 21.6623 36.013 22.409H22.409V36.0124C21.667 36.1231 20.9182 36.1826 20.168 36.1905H19.8307C19.0802 36.1827 18.3312 36.123 17.589 36.0117V22.409H3.98762C3.87692 21.6661 3.81741 20.9164 3.80952 20.1653C3.80952 20.0594 3.80952 19.9528 3.80952 19.8462C3.8165 19.091 3.87579 18.3373 3.98695 17.5903H17.591V3.98762C18.2974 3.88201 19.0099 3.82252 19.7241 3.80952L20.2462 3.80952C20.9277 3.81927 21.608 3.87199 22.2829 3.96738L22.409 3.98627V17.5903H36.0124C36.1231 18.3321 36.1826 19.0807 36.1905 19.8307Z" fill="#C8102E"/>
</g>
</g>
</g>
<defs>
<linearGradient id="paint0_linear_90_2013" x1="20" y1="0" x2="20" y2="40" gradientUnits="userSpaceOnUse">
<stop stop-color="#CCAB67"/>
<stop offset="1" stop-color="#FFEEB0"/>
</linearGradient>
</defs>
</svg>
