<svg width="31" height="31" viewBox="0 0 31 31" fill="none" xmlns="http://www.w3.org/2000/svg">
<g clip-path="url(#clip0_5703_2087)">
<mask id="mask0_5703_2087" style="mask-type:alpha" maskUnits="userSpaceOnUse" x="3" y="3" width="26" height="26">
<path fill-rule="evenodd" clip-rule="evenodd" d="M27.3097 11.1815C25.5372 6.4044 20.9389 3 15.545 3C10.1511 3 5.55279 6.4044 3.78027 11.1815C3.27602 12.5405 3 14.0105 3 15.545C3 17.0795 3.27604 18.5495 3.78029 19.9085C5.55279 24.6856 10.1511 28.09 15.545 28.09C20.9389 28.09 25.5372 24.6856 27.3097 19.9085C27.814 18.5495 28.09 17.0795 28.09 15.545C28.09 14.0105 27.814 12.5405 27.3097 11.1815Z" fill="#D80027"/>
</mask>
<g mask="url(#mask0_5703_2087)">
<path d="M15.5 28C22.4036 28 28 22.4036 28 15.5C28 8.59644 22.4036 3 15.5 3C8.59644 3 3 8.59644 3 15.5C3 22.4036 8.59644 28 15.5 28Z" fill="#D80027"/>
<path d="M15.4999 9.52173L16.8489 13.6735H21.2144L17.6826 16.2395L19.0316 20.3913L15.4999 17.8253L11.9681 20.3913L13.3171 16.2395L9.7854 13.6735H14.1508L15.4999 9.52173Z" fill="#FFDA44"/>
</g>
<path d="M15.5 30.5C23.7843 30.5 30.5 23.7843 30.5 15.5C30.5 7.21573 23.7843 0.5 15.5 0.5C7.21573 0.5 0.5 7.21573 0.5 15.5C0.5 23.7843 7.21573 30.5 15.5 30.5Z" stroke="url(#paint0_linear_5703_2087)"/>
</g>
<defs>
<linearGradient id="paint0_linear_5703_2087" x1="15.5" y1="0" x2="15.5" y2="31" gradientUnits="userSpaceOnUse">
<stop stop-color="#CCAB67"/>
<stop offset="1" stop-color="#FFEEB0"/>
</linearGradient>
<clipPath id="clip0_5703_2087">
<rect width="31" height="31" fill="white"/>
</clipPath>
</defs>
</svg>
