<svg width="31" height="31" viewBox="0 0 31 31" fill="none" xmlns="http://www.w3.org/2000/svg">
<circle cx="15.5" cy="15.5" r="15" stroke="url(#paint0_linear_2438_3301)"/>
<path d="M3 15.545C3 17.7183 3.55291 19.7625 4.52534 21.5448L15.545 22.6357L26.5647 21.5448C27.5371 19.7625 28.09 17.7183 28.09 15.545C28.09 13.3717 27.5371 11.3275 26.5647 9.54521L15.545 8.45433L4.52534 9.54521C3.55291 11.3275 3 13.3717 3 15.545Z" fill="#D80027"/>
<path d="M4.52534 9.54521H26.5646C24.437 5.64567 20.3001 3 15.545 3C10.7899 3 6.65305 5.64567 4.52534 9.54521Z" fill="#0052B4"/>
<path d="M15.545 28.09C20.3001 28.09 24.437 25.4443 26.5647 21.5448H4.52534C6.65305 25.4443 10.7899 28.09 15.545 28.09Z" fill="#0052B4"/>
<path d="M19.9085 17.9995V16.3632H18.8176V14.1814L17.7268 13.0905L16.6359 14.1814V11.9997L15.545 10.9088L14.4541 11.9997V14.1814L13.3632 13.0905L12.2724 14.1814V16.3632H11.1815V17.9995H10.0907V19.6357H20.9993V17.9995H19.9085Z" fill="#F0F0F0"/>
<defs>
<linearGradient id="paint0_linear_2438_3301" x1="15.5" y1="0" x2="15.5" y2="31" gradientUnits="userSpaceOnUse">
<stop stop-color="#CCAB67"/>
<stop offset="1" stop-color="#FFEEB0"/>
</linearGradient>
</defs>
</svg>
