<svg width="31" height="31" viewBox="0 0 31 31" fill="none" xmlns="http://www.w3.org/2000/svg">
<g clip-path="url(#clip0_5703_2276)">
<path d="M15.5 30.5C23.7843 30.5 30.5 23.7843 30.5 15.5C30.5 7.21573 23.7843 0.5 15.5 0.5C7.21573 0.5 0.5 7.21573 0.5 15.5C0.5 23.7843 7.21573 30.5 15.5 30.5Z" stroke="url(#paint0_linear_5703_2276)"/>
<path d="M3 15.5C3 20.8745 6.39219 25.4563 11.1521 27.2225L12.2391 15.5L11.1521 3.7775C6.39219 5.54371 3 10.1254 3 15.5Z" fill="#6DA544"/>
<path d="M28 15.5C28 8.59648 22.4035 3 15.5 3C13.971 3 12.5063 3.27505 11.1521 3.77749V27.2225C12.5063 27.725 13.971 28 15.5 28C22.4035 28 28 22.4035 28 15.5Z" fill="#D80027"/>
<path d="M11.1522 19.8478C13.5535 19.8478 15.5 17.9012 15.5 15.5C15.5 13.0988 13.5535 11.1522 11.1522 11.1522C8.75102 11.1522 6.80444 13.0988 6.80444 15.5C6.80444 17.9012 8.75102 19.8478 11.1522 19.8478Z" fill="#FFDA44"/>
<path d="M8.70654 13.3261V16.0435C8.70654 17.3941 9.80146 18.4891 11.1522 18.4891C12.5029 18.4891 13.5979 17.3942 13.5979 16.0435V13.3261H8.70654Z" fill="#D80027"/>
<path d="M11.1521 16.8587C10.7026 16.8587 10.3369 16.493 10.3369 16.0435V14.9565H11.9673V16.0435C11.9673 16.493 11.6016 16.8587 11.1521 16.8587Z" fill="#F0F0F0"/>
</g>
<defs>
<linearGradient id="paint0_linear_5703_2276" x1="15.5" y1="0" x2="15.5" y2="31" gradientUnits="userSpaceOnUse">
<stop stop-color="#CCAB67"/>
<stop offset="1" stop-color="#FFEEB0"/>
</linearGradient>
<clipPath id="clip0_5703_2276">
<rect width="31" height="31" fill="white"/>
</clipPath>
</defs>
</svg>
