<svg width="23" height="23" viewBox="0 0 23 23" fill="none" xmlns="http://www.w3.org/2000/svg">
<path fill-rule="evenodd" clip-rule="evenodd" d="M23 11.5C23 17.8513 17.8513 23 11.5 23C5.14873 23 0 17.8513 0 11.5C0 5.14873 5.14873 0 11.5 0C17.8513 0 23 5.14873 23 11.5ZM15.1007 10.4163H15.4064C16.287 10.4163 17 11.2067 17 12.1792V17.2354C17 18.2096 16.287 19 15.4064 19H7.59362C6.71302 19 6 18.2096 6 17.2354V12.1792C6 11.2067 6.71302 10.4163 7.59362 10.4163H7.89934V7.98316C7.89934 5.78686 9.51461 4 11.5 4C13.4854 4 15.1007 5.78686 15.1007 7.98316V10.4163ZM12.2283 16.4449V15.0073C12.6259 14.7376 12.8895 14.2522 12.8895 13.7011C12.8895 12.8534 12.2663 12.1657 11.5 12.1657C10.7337 12.1657 10.1105 12.8534 10.1105 13.7011C10.1105 14.2522 10.3741 14.7376 10.7717 15.0073V16.4449C10.7717 16.8882 11.0963 17.2506 11.5 17.2506C11.9037 17.2506 12.2283 16.8882 12.2283 16.4449ZM9.49375 7.98316V10.4163H13.5062V7.98316C13.5062 6.75936 12.6063 5.76379 11.5 5.76379C10.3937 5.76379 9.49375 6.75936 9.49375 7.98316Z" fill="url(#paint0_linear_34_429)"/>
<path d="M23 11.5C23 15 15 15 12 12C6.5 7 0 11.5 0 11.5C0 5.14873 5.14873 0 11.5 0C17.8513 0 23 5.14873 23 11.5Z" fill="url(#paint1_linear_34_429)"/>
<defs>
<linearGradient id="paint0_linear_34_429" x1="11.5" y1="2.41209e-09" x2="11.4887" y2="23" gradientUnits="userSpaceOnUse">
<stop stop-color="#8B6832"/>
<stop offset="1" stop-color="#FCDD9A"/>
</linearGradient>
<linearGradient id="paint1_linear_34_429" x1="12.5" y1="13.5" x2="12.5" y2="7.5" gradientUnits="userSpaceOnUse">
<stop stop-color="white" stop-opacity="0.3"/>
<stop offset="1" stop-color="white" stop-opacity="0"/>
</linearGradient>
</defs>
</svg>
