<svg width="23" height="22" viewBox="0 0 23 22" fill="none" xmlns="http://www.w3.org/2000/svg">
<path d="M22.744 9.5943L22.721 9.60891C22.7349 9.42458 22.744 9.23936 22.744 9.05229C22.744 4.05277 17.7387 0 11.5645 0C5.39034 0 0.384766 4.05269 0.384766 9.05221C0.384766 13.4757 4.30461 17.156 9.48443 17.9454L9.48225 17.9469C9.48225 17.9469 11.2882 18.0834 10.3002 20.5641C10.3002 20.5641 9.63268 21.8412 11.5675 20.8602C14.682 19.6795 22.9091 16.1675 22.744 9.5943Z" fill="url(#paint0_linear_3963_3622)"/>
<path d="M7.30514 10.6309H5.43964C5.35216 10.6309 5.28122 10.5597 5.28122 10.4723V6.66186C5.28122 6.43637 5.09745 6.25293 4.87221 6.25293H4.42155C4.19598 6.25293 4.0127 6.43637 4.0127 6.66186V11.4431C4.0127 11.6685 4.19598 11.852 4.42155 11.852H7.30514C7.53055 11.852 7.71416 11.6685 7.71416 11.4431V11.0397C7.71424 10.8145 7.53055 10.6309 7.30514 10.6309Z" fill="#3AAA35"/>
<path d="M9.13431 6.25293H8.69092C8.46551 6.25293 8.28223 6.43637 8.28223 6.66186V11.4431C8.28223 11.6685 8.46551 11.852 8.69092 11.852H9.13431C9.35988 11.852 9.543 11.6685 9.543 11.4431V6.66186C9.543 6.43637 9.35988 6.25293 9.13431 6.25293Z" fill="#3AAA35"/>
<path d="M14.5662 6.25293H14.1157C13.8902 6.25293 13.7069 6.43637 13.7069 6.66186V9.47589L11.8027 6.54775C11.6952 6.38246 11.4566 6.25293 11.2594 6.25293H10.8503C10.625 6.25293 10.4414 6.43637 10.4414 6.66186V11.4431C10.4414 11.6685 10.625 11.852 10.8503 11.852H11.3009C11.5265 11.852 11.7099 11.6685 11.7099 11.4431V8.63938L13.6111 11.5574C13.7184 11.7226 13.9572 11.852 14.1544 11.852H14.5663C14.7921 11.852 14.975 11.6685 14.975 11.4431V6.66186C14.975 6.43637 14.792 6.25293 14.5662 6.25293Z" fill="#3AAA35"/>
<path d="M17.3696 7.4995H18.7113C18.9367 7.4995 19.1205 7.31622 19.1205 7.09065V6.66186C19.1205 6.43637 18.9367 6.25293 18.7113 6.25293H16.3589C16.1333 6.25293 15.9502 6.43637 15.9502 6.66186V11.4431C15.9502 11.6685 16.1334 11.852 16.3589 11.852H18.7113C18.9367 11.852 19.1205 11.6685 19.1205 11.4431V11.0108C19.1205 10.7852 18.9367 10.602 18.7113 10.602H17.3696C17.2822 10.602 17.2111 10.5307 17.2111 10.4434V9.60356C17.2111 9.51616 17.2822 9.44482 17.3696 9.44482H18.7113C18.9367 9.44482 19.1205 9.2617 19.1205 9.03605V8.62566C19.1205 8.40001 18.9367 8.21673 18.7113 8.21673H17.3696C17.2822 8.21673 17.2111 8.14547 17.2111 8.05814V7.65833C17.2111 7.57076 17.2822 7.4995 17.3696 7.4995Z" fill="#3AAA35"/>
<defs>
<linearGradient id="paint0_linear_3963_3622" x1="11.5656" y1="0" x2="11.5656" y2="21.2308" gradientUnits="userSpaceOnUse">
<stop offset="0.41" stop-color="white"/>
<stop offset="1" stop-color="#D2D2D2"/>
</linearGradient>
</defs>
</svg>
