<svg width="23" height="23" viewBox="0 0 23 23" fill="none" xmlns="http://www.w3.org/2000/svg">
<path fill-rule="evenodd" clip-rule="evenodd" d="M23 11.5C23 17.8513 17.8513 23 11.5 23C5.14873 23 0 17.8513 0 11.5C0 5.14873 5.14873 0 11.5 0C17.8513 0 23 5.14873 23 11.5ZM7.84722 11.5C7.84602 12.2924 7.90084 13.0839 8.01129 13.8685H4.90914C4.36091 12.3371 4.36091 10.6629 4.90914 9.13148H8.01129C7.90084 9.91614 7.84602 10.7076 7.84722 11.5ZM13.4155 16.5753C12.8804 17.7984 12.1826 18.5 11.499 18.5C10.8154 18.5 10.1176 17.7984 9.58246 16.5753C9.33801 16.0164 9.13894 15.3795 8.98992 14.6886H14.008C13.859 15.3798 13.66 16.0166 13.4155 16.5753ZM8.84008 9.13148H14.1579C14.3883 10.7021 14.3883 12.2979 14.1579 13.8685H8.84008C8.72355 13.0844 8.66579 12.2927 8.66726 11.5C8.66579 10.7073 8.72355 9.91558 8.84008 9.13148ZM14.9867 9.13148H18.0888C18.6371 10.6629 18.6371 12.3371 18.0888 13.8685H14.9867C15.2058 12.2971 15.2058 10.7029 14.9867 9.13148ZM9.58246 6.42473C10.1176 5.20137 10.8154 4.5 11.499 4.5C12.1826 4.5 12.8804 5.20137 13.4155 6.42473C13.66 6.98363 13.859 7.62047 14.008 8.31145H8.98992C9.13894 7.6202 9.33801 6.98336 9.58246 6.42473ZM8.15265 8.31117H5.26461C5.70261 7.44913 6.31542 6.68781 7.06398 6.07574C7.81253 5.46367 8.6804 5.01427 9.61226 4.75621C9.32488 5.1177 9.06238 5.56641 8.83078 6.09633C8.54476 6.74957 8.31672 7.49906 8.15265 8.31117ZM14.1664 6.09578C13.9345 5.56613 13.6723 5.1177 13.3857 4.75594C14.3175 5.01405 15.1853 5.46343 15.9339 6.07544C16.6824 6.68745 17.2953 7.44868 17.7334 8.31063H14.8445C14.6802 7.49906 14.4524 6.74957 14.1664 6.09578ZM14.8453 14.6888H17.7334C17.2954 15.5507 16.6827 16.312 15.9343 16.924C15.1859 17.536 14.3182 17.9854 13.3865 18.2435C13.6731 17.8818 13.9353 17.4333 14.1672 16.9037C14.4532 16.2504 14.6812 15.5009 14.8453 14.6888ZM8.8316 16.9037C9.0632 17.4333 9.3257 17.8818 9.61226 18.2435V18.2441C8.68039 17.9859 7.81252 17.5365 7.06397 16.9244C6.31542 16.3123 5.70261 15.5509 5.26461 14.6888H8.15347C8.31781 15.5004 8.54558 16.2499 8.8316 16.9037Z" fill="url(#paint0_linear_3430_3686)"/>
<path d="M23 11.5C23 15 15 15 12 12C6.5 7 0 11.5 0 11.5C0 5.14873 5.14873 0 11.5 0C17.8513 0 23 5.14873 23 11.5Z" fill="url(#paint1_linear_3430_3686)"/>
<defs>
<linearGradient id="paint0_linear_3430_3686" x1="11.5" y1="2.41209e-09" x2="11.4887" y2="23" gradientUnits="userSpaceOnUse">
<stop stop-color="#8B6832"/>
<stop offset="1" stop-color="#FCDD9A"/>
</linearGradient>
<linearGradient id="paint1_linear_3430_3686" x1="12.5" y1="13.5" x2="12.5" y2="7.5" gradientUnits="userSpaceOnUse">
<stop stop-color="white" stop-opacity="0.3"/>
<stop offset="1" stop-color="white" stop-opacity="0"/>
</linearGradient>
</defs>
</svg>
