<svg width="23" height="23" viewBox="0 0 23 23" fill="none" xmlns="http://www.w3.org/2000/svg">
<path fill-rule="evenodd" clip-rule="evenodd" d="M0 11.5C0 5.14872 5.14872 0 11.5 0C17.8512 0 23 5.14872 23 11.5C23 17.8512 17.8512 23 11.5 23C5.14872 23 0 17.8512 0 11.5ZM11.4999 4.6C8.95938 4.6 6.8999 6.65949 6.8999 9.2C6.8999 11.7405 8.95938 13.8 11.4999 13.8C14.0403 13.8 16.0999 11.7405 16.0999 9.2C16.0999 6.65949 14.0403 4.6 11.4999 4.6ZM17.3782 16.097C18.2497 16.6582 18.2071 17.8815 17.4135 18.5481C15.8145 19.8911 13.7518 20.7 11.5001 20.7C9.26336 20.7 7.21297 19.9018 5.61839 18.5746C4.81771 17.9081 4.77528 16.6787 5.65054 16.1138C5.92301 15.938 6.21973 15.7839 6.54176 15.6512C7.83743 15.117 9.49233 14.95 11.5 14.95C13.5178 14.95 15.1821 15.1063 16.4811 15.6347C16.8056 15.7667 17.1044 15.9207 17.3782 16.097Z" fill="url(#paint0_linear_199_6519)"/>
<path d="M23 11.5C23 15 15 15 12 12C6.5 7 0 11.5 0 11.5C0 5.14873 5.14873 0 11.5 0C17.8513 0 23 5.14873 23 11.5Z" fill="url(#paint1_linear_199_6519)"/>
<defs>
<linearGradient id="paint0_linear_199_6519" x1="11.5" y1="2.41209e-09" x2="11.4887" y2="23" gradientUnits="userSpaceOnUse">
<stop stop-color="#8B6832"/>
<stop offset="1" stop-color="#FCDD9A"/>
</linearGradient>
<linearGradient id="paint1_linear_199_6519" x1="12.5" y1="13.5" x2="12.5" y2="7.5" gradientUnits="userSpaceOnUse">
<stop stop-color="white" stop-opacity="0.3"/>
<stop offset="1" stop-color="white" stop-opacity="0"/>
</linearGradient>
</defs>
</svg>
