<svg width="23" height="24" viewBox="0 0 23 24" fill="none" xmlns="http://www.w3.org/2000/svg">
<path fill-rule="evenodd" clip-rule="evenodd" d="M23 12C23 18.3513 17.8513 23.5 11.5 23.5C5.14873 23.5 0 18.3513 0 12C0 5.64873 5.14873 0.5 11.5 0.5C17.8513 0.5 23 5.64873 23 12ZM12.04 7.61H18.2742C18.3695 7.61 18.4639 7.62877 18.5519 7.66525C18.64 7.70173 18.72 7.75519 18.7874 7.82259C18.8548 7.88999 18.9083 7.97001 18.9448 8.05807C18.9812 8.14613 19 8.24052 19 8.33583V12.6843C19 12.8767 18.9235 13.0613 18.7874 13.1974C18.6513 13.3335 18.4667 13.41 18.2743 13.41H12.04V18.4879C12.0398 18.7563 11.933 19.0136 11.7433 19.2033C11.5535 19.3931 11.2962 19.4998 11.0278 19.5H5.51203C5.24369 19.4997 4.98641 19.393 4.79667 19.2033C4.60694 19.0135 4.50024 18.7562 4.5 18.4879V6.0121C4.49988 5.87916 4.52597 5.7475 4.57678 5.62466C4.62759 5.50181 4.70213 5.39019 4.79613 5.29619C4.89013 5.20218 5.00175 5.12763 5.12459 5.07681C5.24743 5.02599 5.37909 4.99989 5.51203 5H11.0278C11.1608 4.99987 11.2925 5.02596 11.4153 5.07678C11.5382 5.12759 11.6498 5.20214 11.7438 5.29614C11.8378 5.39015 11.9124 5.50178 11.9632 5.62463C12.014 5.74748 12.0401 5.87915 12.04 6.0121V7.61ZM8.995 5.6148H7.545C7.44886 5.6148 7.35666 5.65299 7.28867 5.72097C7.22069 5.78896 7.1825 5.88116 7.1825 5.9773C7.1825 6.07344 7.22069 6.16564 7.28867 6.23363C7.35666 6.30161 7.44886 6.3398 7.545 6.3398H8.995C9.09114 6.3398 9.18334 6.30161 9.25133 6.23363C9.31931 6.16564 9.3575 6.07344 9.3575 5.9773C9.3575 5.88116 9.31931 5.78896 9.25133 5.72097C9.18334 5.65299 9.09114 5.6148 8.995 5.6148ZM7.54486 18.8828H8.99486C9.091 18.8828 9.1832 18.8446 9.25118 18.7766C9.31917 18.7086 9.35736 18.6164 9.35736 18.5203C9.35736 18.4241 9.31917 18.3319 9.25118 18.264C9.1832 18.196 9.091 18.1578 8.99486 18.1578H7.54486C7.44872 18.1578 7.35651 18.196 7.28853 18.264C7.22055 18.3319 7.18236 18.4241 7.18236 18.5203C7.18236 18.6164 7.22055 18.7086 7.28853 18.7766C7.35651 18.8446 7.44872 18.8828 7.54486 18.8828ZM5.13792 17.5425H11.4019V13.41H10.88L9.4618 14.8282C9.41168 14.8783 9.34782 14.9125 9.2783 14.9263C9.20878 14.9401 9.13672 14.933 9.07124 14.9059C9.00575 14.8788 8.94978 14.8328 8.9104 14.7739C8.87102 14.715 8.85 14.6457 8.85 14.5748V13.41H7.53971C7.4452 13.41 7.35161 13.3914 7.26429 13.3552C7.17697 13.319 7.09763 13.266 7.0308 13.1992C6.96397 13.1324 6.91095 13.053 6.87478 12.9657C6.83861 12.8784 6.82 12.7848 6.82 12.6903V8.32904C6.82 8.13834 6.89576 7.95545 7.0306 7.8206C7.16545 7.68576 7.34834 7.61 7.53904 7.61H11.4019V6.9575H5.13792V17.5425ZM10.7849 10.9944C10.76 10.9015 10.6992 10.8222 10.616 10.7739L10.155 10.51L10.6161 10.2432C10.6995 10.1951 10.7604 10.1159 10.7855 10.0229C10.8105 9.92988 10.7975 9.83076 10.7494 9.74731C10.7014 9.66386 10.6221 9.60293 10.5291 9.57792C10.4361 9.5529 10.337 9.56585 10.2536 9.61392L9.7925 9.8807V9.35C9.7925 9.25386 9.75431 9.16166 9.68633 9.09367C9.61835 9.02569 9.52614 8.9875 9.43 8.9875C9.33386 8.9875 9.24166 9.02569 9.17367 9.09367C9.10569 9.16166 9.0675 9.25386 9.0675 9.35V9.8807L8.6063 9.61392C8.52286 9.56585 8.42373 9.5529 8.33073 9.57792C8.23774 9.60293 8.15849 9.66386 8.11042 9.74731C8.06234 9.83076 8.04939 9.92988 8.07441 10.0229C8.09942 10.1159 8.16036 10.1951 8.2438 10.2432L8.705 10.51L8.2438 10.7739C8.16066 10.8223 8.09999 10.9015 8.075 10.9944C8.05002 11.0873 8.06274 11.1863 8.1104 11.2698C8.13398 11.3113 8.16558 11.3478 8.20336 11.377C8.24114 11.4063 8.28434 11.4277 8.33048 11.4401C8.37661 11.4525 8.42474 11.4557 8.47209 11.4493C8.51944 11.443 8.56506 11.4273 8.6063 11.4032L9.0675 11.1364V11.67C9.0675 11.7661 9.10569 11.8583 9.17367 11.9263C9.24166 11.9943 9.33386 12.0325 9.43 12.0325C9.52614 12.0325 9.61835 11.9943 9.68633 11.9263C9.75431 11.8583 9.7925 11.7661 9.7925 11.67V11.1364L10.2535 11.4032C10.2948 11.4273 10.3404 11.443 10.3878 11.4493C10.4351 11.4557 10.4832 11.4525 10.5294 11.4401C10.5755 11.4277 10.6187 11.4063 10.6565 11.377C10.6943 11.3478 10.7259 11.3113 10.7494 11.2698C10.7972 11.1863 10.8099 11.0873 10.7849 10.9944ZM14.2649 10.9944C14.24 10.9015 14.1792 10.8222 14.096 10.7739L13.635 10.51L14.0961 10.2432C14.1795 10.1951 14.2404 10.1159 14.2655 10.0229C14.2905 9.92988 14.2775 9.83076 14.2294 9.74731C14.1814 9.66386 14.1021 9.60293 14.0091 9.57792C13.9161 9.5529 13.817 9.56585 13.7336 9.61392L13.2725 9.8807V9.35C13.2725 9.25386 13.2343 9.16166 13.1663 9.09367C13.0983 9.02569 13.0061 8.9875 12.91 8.9875C12.8139 8.9875 12.7217 9.02569 12.6537 9.09367C12.5857 9.16166 12.5475 9.25386 12.5475 9.35V9.8807L12.0863 9.61392C12.0029 9.56585 11.9037 9.5529 11.8107 9.57792C11.7177 9.60293 11.6385 9.66386 11.5904 9.74731C11.5423 9.83076 11.5294 9.92988 11.5544 10.0229C11.5794 10.1159 11.6404 10.1951 11.7238 10.2432L12.185 10.51L11.7238 10.7739C11.6407 10.8223 11.58 10.9015 11.555 10.9944C11.53 11.0873 11.5427 11.1863 11.5904 11.2698C11.614 11.3113 11.6456 11.3478 11.6834 11.377C11.7211 11.4063 11.7643 11.4277 11.8105 11.4401C11.8566 11.4525 11.9047 11.4557 11.9521 11.4493C11.9994 11.443 12.0451 11.4273 12.0863 11.4032L12.5475 11.1364V11.67C12.5475 11.7661 12.5857 11.8583 12.6537 11.9263C12.7217 11.9943 12.8139 12.0325 12.91 12.0325C13.0061 12.0325 13.0983 11.9943 13.1663 11.9263C13.2343 11.8583 13.2725 11.7661 13.2725 11.67V11.1364L13.7335 11.4032C13.7748 11.4273 13.8204 11.443 13.8678 11.4493C13.9151 11.4557 13.9632 11.4525 14.0094 11.4401C14.0555 11.4277 14.0987 11.4063 14.1365 11.377C14.1743 11.3478 14.2059 11.3113 14.2294 11.2698C14.2772 11.1863 14.2899 11.0873 14.2649 10.9944ZM17.7449 10.9944C17.72 10.9015 17.6592 10.8222 17.576 10.7739L17.115 10.51L17.5761 10.2432C17.6174 10.2194 17.6536 10.1877 17.6827 10.1499C17.7117 10.1121 17.7331 10.0689 17.7455 10.0229C17.7578 9.97683 17.761 9.9288 17.7549 9.88152C17.7487 9.83423 17.7332 9.78863 17.7094 9.74731C17.6856 9.70599 17.6539 9.66977 17.6161 9.6407C17.5783 9.61164 17.5352 9.5903 17.4891 9.57792C17.4431 9.56553 17.395 9.56233 17.3478 9.56851C17.3005 9.57469 17.2549 9.59012 17.2136 9.61392L16.7525 9.8807V9.35C16.7525 9.25386 16.7143 9.16166 16.6463 9.09367C16.5783 9.02569 16.4861 8.9875 16.39 8.9875C16.2939 8.9875 16.2017 9.02569 16.1337 9.09367C16.0657 9.16166 16.0275 9.25386 16.0275 9.35V9.8807L15.5663 9.61392C15.4829 9.56585 15.3837 9.5529 15.2907 9.57792C15.1977 9.60293 15.1185 9.66386 15.0704 9.74731C15.0223 9.83076 15.0094 9.92988 15.0344 10.0229C15.0594 10.1159 15.1204 10.1951 15.2038 10.2432L15.665 10.51L15.2038 10.7739C15.1207 10.8223 15.06 10.9015 15.035 10.9944C15.01 11.0873 15.0227 11.1863 15.0704 11.2698C15.094 11.3113 15.1256 11.3478 15.1634 11.377C15.2011 11.4063 15.2443 11.4277 15.2905 11.4401C15.3366 11.4525 15.3847 11.4557 15.4321 11.4493C15.4794 11.443 15.5251 11.4273 15.5663 11.4032L16.0275 11.1364V11.67C16.0275 11.7661 16.0657 11.8583 16.1337 11.9263C16.2017 11.9943 16.2939 12.0325 16.39 12.0325C16.4861 12.0325 16.5783 11.9943 16.6463 11.9263C16.7143 11.8583 16.7525 11.7661 16.7525 11.67V11.1364L17.2135 11.4032C17.2548 11.4273 17.3004 11.443 17.3478 11.4493C17.3951 11.4557 17.4432 11.4525 17.4894 11.4401C17.5355 11.4277 17.5787 11.4063 17.6165 11.377C17.6543 11.3478 17.6859 11.3113 17.7094 11.2698C17.7572 11.1863 17.7699 11.0873 17.7449 10.9944Z" fill="url(#paint0_angular_199_6576)"/>
<path d="M23 12C23 15.5 15 15.5 12 12.5C6.5 7.5 0 12 0 12C0 5.64873 5.14873 0.5 11.5 0.5C17.8513 0.5 23 5.64873 23 12Z" fill="url(#paint1_linear_199_6576)"/>
<defs>
<radialGradient id="paint0_angular_199_6576" cx="0" cy="0" r="1" gradientUnits="userSpaceOnUse" gradientTransform="translate(11.5 12.5) rotate(90) scale(11)">
<stop stop-color="#C4984E"/>
<stop offset="0.333333" stop-color="#E3BB72"/>
<stop offset="0.828125" stop-color="#F6D780"/>
<stop offset="1" stop-color="#E3BB72"/>
</radialGradient>
<linearGradient id="paint1_linear_199_6576" x1="12.5" y1="14" x2="12.5" y2="8" gradientUnits="userSpaceOnUse">
<stop stop-color="white" stop-opacity="0.3"/>
<stop offset="1" stop-color="white" stop-opacity="0"/>
</linearGradient>
</defs>
</svg>
